<svg
  width="640"
  height="480"
  xmlns="http://www.w3.org/2000/svg"
  xmlns:svg="http://www.w3.org/2000/svg"
>
  <defs>
    <filter
      height="200%"
      width="200%"
      y="-50%"
      x="-50%"
      id="svg_3_blur"
    >
      <feGaussianBlur stdDeviation="3.8" in="SourceGraphic" />
    </filter>
  </defs>
  <g>
    <title>Layer 1</title>
    <path
      filter="url(#svg_3_blur)"
      d="m282,157c-1.61066,0 -2.52084,0 -3.49066,0c-0.61349,0 -1.452,0 -2.59534,0c-0.94266,0 -1.45801,0 -2.55667,0c-0.57532,0 -1.16266,0 -2.95816,0c-0.60583,0 -1.22168,0 -1.85251,0c-1.32666,0 -2.0325,0 -2.77332,0c-1.60669,0 -2.47986,0 -3.392,0c-0.94019,0 -1.89734,0 -2.8605,0c-0.95819,0 -1.90033,0 -2.81552,0c-1.70532,0 -2.47649,0 -3.19466,0c-0.67216,0 -1.30533,0 -1.90649,0c-0.57617,0 -1.13434,0 -1.6815,0c-1.6445,0 -2.21066,0 -3.38,0c-0.60516,0 -1.22533,0 -1.8615,0c-2.0145,0 -2.72383,0 -3.44917,0c-0.73734,0 -1.48267,0 -2.23199,0c-0.74933,0 -1.49466,0 -2.23199,0c-1.43468,0 -2.79868,0 -3.45818,0c-0.6485,0 -1.289,0 -2.558,0c-0.63449,0 -1.9185,0 -2.57317,0c-0.66266,0 -2.004,0 -2.67867,0c-0.67467,0 -1.34734,0 -2.01601,0c-1.96249,0 -2.59866,0 -3.22682,0c-1.23634,0 -1.84651,0 -2.45267,0c-1.8045,0 -2.40451,-0.00159 -3.0045,0.00133c-1.20001,0.00583 -1.80014,0.01476 -2.40001,0.03467c-1.20035,0.03984 -2.40042,0.12616 -2.99983,0.1855c-0.59929,0.05933 -1.79008,0.21046 -2.37933,0.29933c-1.1649,0.17569 -1.73633,0.27585 -2.85416,0.47917c-1.08217,0.19684 -1.6113,0.2961 -2.64584,0.52083c-0.51108,0.11102 -1.52452,0.34723 -2.52083,0.64584c-1.00536,0.30133 -1.50258,0.48347 -2.5,0.85416c-0.50133,0.18631 -1.50018,0.58005 -2.5,0.97917c-1.00418,0.40088 -1.51306,0.60562 -2.5625,1.02083c-0.54527,0.21574 -1.10773,0.43961 -2.9375,1.14584c-0.66371,0.25618 -1.35402,0.51822 -2.0625,0.795c-0.72488,0.28319 -1.4601,0.57574 -2.19749,0.88499c-0.74097,0.31075 -1.48447,0.61702 -2.90668,1.32001c-0.69595,0.34401 -1.36729,0.71338 -2.019,1.09949c-0.64703,0.38335 -1.27766,0.78905 -1.89299,1.21651c-0.61743,0.42892 -1.23306,0.87158 -2.42134,1.85066c-0.6075,0.50055 -1.20271,1.033 -1.8,1.57651c-0.60275,0.54848 -1.2005,1.11046 -1.8,1.67549c-0.60049,0.56598 -1.19363,1.13889 -2.39999,2.248c-0.59688,0.54875 -1.19901,1.08379 -1.8,1.614c-0.59901,0.52846 -1.2005,1.05209 -1.8,1.578c-0.60049,0.52676 -1.20665,1.05135 -2.39999,2.14134c-0.60339,0.55113 -1.20175,1.11684 -1.8,1.69049c-0.60176,0.57701 -1.20099,1.16266 -1.8,1.75351c-0.601,0.59282 -1.20058,1.19008 -2.39999,2.38933c-0.59979,0.59972 -1.1983,1.19774 -1.7865,1.8c-0.58379,0.59776 -1.15594,1.19547 -1.70551,1.8c-0.54141,0.59557 -1.07893,1.17903 -2.008,2.39999c-0.44908,0.59016 -0.85201,1.19655 -1.2375,1.8c-0.38113,0.59663 -0.74165,1.2 -1.10249,1.8c-0.36082,0.59999 -1.48772,2.40387 -1.90266,2.99983c-0.41969,0.6028 -0.86043,1.19734 -1.308,1.78949c-0.44711,0.59154 -0.89951,1.17403 -1.34401,1.75351c-0.43816,0.5712 -1.28328,1.68263 -2.03467,2.77184c-0.36179,0.52444 -0.70514,1.04526 -1.34933,2.07466c-0.31552,0.50418 -0.62059,1.00818 -1.52116,2.51067c-0.29947,0.49962 -0.60092,0.99695 -1.17934,2c-0.28746,0.49849 -0.84674,1.49425 -1.35416,2.5c-0.25076,0.49706 -0.71188,1.49445 -0.93068,1.98933c-0.43001,0.97261 -0.62175,1.45778 -1.23599,2.84399c-0.39116,0.88277 -0.6008,1.30069 -0.95833,2.125c-0.33659,0.77605 -0.73946,1.8685 -0.93634,2.88901c-0.12524,0.64914 -0.22641,1.65024 -0.54817,2.674c-0.23344,0.74274 -0.57785,1.47873 -0.909,2.226c-0.48129,1.08609 -0.77472,1.76569 -1.01216,2.438c-0.23729,0.67189 -0.44914,1.38037 -0.73601,2.5575c-0.21066,0.86447 -0.39999,1.778 -0.59999,2.709c-0.10001,0.4655 -0.38959,1.82909 -0.60451,2.68651c-0.20619,0.8226 -0.41068,1.61662 -0.86216,2.69499c-0.29073,0.69443 -0.66343,1.33881 -1.008,1.992c-0.34613,0.65616 -0.82039,1.69043 -1.06817,2.43184c-0.25338,0.75816 -0.45438,1.54691 -0.75716,2.74283c-0.20248,0.79971 -0.39967,1.60318 -0.636,2.39999c-0.23828,0.80336 -0.67465,2.00491 -1.02567,2.8045c-0.17941,0.40868 -0.57622,1.23611 -1.025,2.08084c-0.47083,0.88623 -0.99654,1.79913 -1.266,2.26733c-0.54573,0.94824 -0.82597,1.41974 -1.36333,2.36331c-0.52119,0.91516 -0.99667,1.79919 -1.45866,2.63736c-0.22372,0.40588 -0.63844,1.21185 -1.392,2.28c-0.49469,0.7012 -1.07625,1.34476 -1.375,1.66666c-0.61239,0.65982 -1.62547,1.66617 -1.97967,2.02151c-0.73232,0.73468 -1.10826,1.11038 -1.85333,1.88916c-0.37482,0.39178 -1.46197,1.58649 -1.80383,1.98917c-0.67085,0.79016 -1.29999,1.57986 -1.61083,1.96417c-0.60801,0.75171 -1.50867,1.81647 -1.81067,2.15198c-0.59606,0.66223 -1.20802,1.30215 -1.8,1.96802c-0.91248,1.02637 -1.20194,1.39844 -1.8,2.14133c-0.60197,0.74774 -0.88382,1.13562 -1.8,2.20801c-0.58971,0.69025 -1.19823,1.33234 -1.5,1.64581c-0.59653,0.61969 -1.50002,1.52084 -2.09734,2.11816c-0.58134,0.58136 -1.13067,1.13068 -2.06933,2.06934c-0.519,0.51901 -1.13071,1.13065 -1.73334,1.73334c-0.69987,0.69995 -1.40736,1.2511 -1.58933,2.164c-0.17255,0.86569 0.01048,1.75888 -0.0315,2.51935c-0.0428,0.77548 -0.19457,1.7822 -0.33633,2.58817c-0.15694,0.89221 -0.25185,1.36084 -0.44416,2.33249c-0.29615,1.49634 -0.39759,1.99487 -0.59867,2.98532c-0.09946,0.48996 -0.29404,1.45483 -0.6,2.84402c-0.19488,0.88486 -0.30691,1.31616 -0.47916,2.1875c-0.1753,0.88675 -0.36124,2.31192 -0.39934,2.82166c-0.07902,1.05734 -0.09185,1.59738 -0.11083,2.67084c-0.00927,0.52414 -0.01067,1.98666 -0.01067,2.82935c0,0.73865 0,1.38931 0,2.49066c0,0.93066 0,1.76532 0,2.75766c0,0.83832 -0.09924,1.8002 0.22183,2.73065c0.25983,0.75296 0.72861,1.38229 1.32067,2.09933c0.4426,0.53604 1.16815,1.28433 1.9575,2.07901c0.53819,0.54181 1.21432,1.21432 1.72134,1.72134c0.77866,0.77866 1.3614,1.39294 1.97866,1.94266c0.77896,0.69373 1.36864,1.14444 2.2,1.47433c0.77628,0.30804 1.80592,0.25909 2.57867,0.58316c0.84135,0.35284 1.48327,1.02234 2.196,1.3425c0.91675,0.4118 1.71258,0.51111 2.66133,0.86133c0.76802,0.28351 1.77214,0.45465 2.50684,0.62735c0.92351,0.2171 1.64456,0.8623 2.45717,0.94598c0.89526,0.09219 1.836,0.00134 2.68666,0.00134c0.76,0 1.93501,0 2.47501,0c0.88499,0 2.20499,0 2.92233,0c0.74133,0 1.49066,0 2.23199,0c1.39867,0 2.048,0 2.9795,0c0.9045,0 1.80988,0.01505 2.7405,-0.03601c0.65023,-0.03568 1.68761,-0.17374 2.41667,-0.32117c0.74986,-0.15164 1.49902,-0.33185 2.9265,-0.74298c0.68384,-0.19696 1.38277,-0.42252 2.145,-0.65701c1.34151,-0.41272 1.86157,-0.56522 2.41716,-0.72815c1.20212,-0.35257 1.84192,-0.5358 2.50133,-0.72534c0.67526,-0.19412 1.36264,-0.39075 2.75734,-0.78934c0.69998,-0.20004 2.10001,-0.60001 2.8,-0.79999c0.7,-0.20001 1.39999,-0.40002 2.09999,-0.60001c0.70001,-0.20001 2.09991,-0.60034 2.79984,-0.79984c0.69875,-0.19919 1.39436,-0.40039 2.77934,-0.77933c0.68419,-0.18719 1.36253,-0.36816 2.03549,-0.53552c1.31651,-0.32742 1.96288,-0.46689 3.21918,-0.73267c0.60854,-0.12872 1.20602,-0.24219 2.34732,-0.50531c0.54802,-0.12634 2.07838,-0.56189 2.5495,-0.73135c0.9128,-0.32831 1.78181,-0.69626 2.2175,-0.86331c1.3121,-0.50305 2.23206,-0.77139 2.69551,-0.89551c0.91254,-0.24435 1.79828,-0.4202 2.95633,-0.75717c0.94101,-0.2738 1.45256,-0.51419 2.66667,-1c0.51495,-0.20605 1.33765,-0.48853 2.14932,-0.79999c1.00554,-0.38586 1.67918,-0.71127 2.36801,-1c0.9933,-0.41635 1.82021,-0.68881 2.63199,-1c1.00406,-0.38489 1.63937,-0.75717 2.68401,-1.03336c0.80753,-0.2135 1.53035,-0.22635 2.64317,-0.6095c0.68692,-0.23651 1.41658,-0.58478 2.22299,-0.909c0.42043,-0.16904 1.7518,-0.63953 2.69099,-0.89099c0.47713,-0.12775 1.45294,-0.34918 1.94734,-0.45267c1.49382,-0.31265 2.50217,-0.50583 3.01801,-0.60901c1.08167,-0.21634 1.65749,-0.33148 2.26332,-0.45267c0.64084,-0.12817 2.04747,-0.40967 2.82117,-0.56415c0.81564,-0.16287 1.66519,-0.33209 2.541,-0.50403c0.89352,-0.17542 1.79707,-0.35068 2.703,-0.52197c0.89941,-0.17004 2.64865,-0.48801 3.48517,-0.63135c0.81284,-0.13928 1.6102,-0.2695 2.3985,-0.396c0.78604,-0.12616 1.57741,-0.25018 2.38051,-0.37799c0.82224,-0.13086 2.55168,-0.41293 3.47049,-0.56866c0.95319,-0.16156 1.93394,-0.33173 2.937,-0.50403c1.01895,-0.17502 2.04771,-0.3511 3.08101,-0.52197c1.03072,-0.17044 3.06252,-0.48938 4.05383,-0.63116c0.97536,-0.1395 1.9413,-0.26733 2.9025,-0.38553c0.96046,-0.11813 1.92642,-0.22757 2.9025,-0.33148c0.9906,-0.10547 3.03741,-0.30551 4.10117,-0.40451c1.08559,-0.10104 2.18535,-0.19989 3.291,-0.29999c1.10368,-0.09991 2.19745,-0.19879 3.27301,-0.30002c1.04977,-0.09879 3.03923,-0.29791 3.96466,-0.39981c0.87988,-0.09689 1.71733,-0.19571 2.517,-0.28952c0.76567,-0.08984 1.50108,-0.17697 2.211,-0.25348c0.68742,-0.0741 2.01276,-0.19421 2.658,-0.23584c0.6348,-0.04095 1.25998,-0.06946 1.875,-0.09601c0.60498,-0.02612 1.20013,-0.0484 1.785,-0.078c0.57513,-0.02911 1.69547,-0.10947 2.23999,-0.16867c0.53549,-0.05823 1.06024,-0.12961 1.57501,-0.20398c0.50525,-0.073 0.99982,-0.1506 1.48499,-0.22202c0.47482,-0.06989 1.39462,-0.19016 1.84033,-0.23117c0.43698,-0.04022 0.86856,-0.06729 1.29602,-0.08548c0.4252,-0.0181 0.85062,-0.02957 1.70932,-0.03467c1.33746,-0.00793 2.27316,-0.00134 2.75201,-0.00134c0.97467,0 1.96533,0.00067 2.96399,0c1,-0.00067 1.50021,0.00549 2.5,-0.02084c1.00031,-0.02634 1.50253,-0.03885 3,-0.2005c0.50101,-0.05408 1.49994,-0.20447 2,-0.27866c0.99985,-0.14832 2.49954,-0.33881 3,-0.37866c0.99918,-0.07959 1.50021,-0.09201 2.5,-0.14667c1.00021,-0.05469 2.00119,-0.1315 3,-0.25867c0.50064,-0.06375 1.4993,-0.22092 2.5,-0.36334c0.49966,-0.07111 1.99957,-0.2352 2.49866,-0.26865c0.99017,-0.06638 1.9657,-0.10342 2.44418,-0.13669c1.39182,-0.09677 2.27496,-0.22272 3.13184,-0.38333c0.42627,-0.0799 1.27682,-0.27371 2.59198,-0.564c0.91656,-0.2023 1.38419,-0.30518 2.33334,-0.47916c0.94562,-0.17334 1.4129,-0.2634 2.77866,-0.39951c0.8671,-0.08643 1.72208,-0.11075 2.57401,-0.17401c1.31531,-0.09766 1.77054,-0.15652 2.70001,-0.3045c0.9494,-0.15115 1.42355,-0.246 2.36331,-0.44415c1.36499,-0.28781 2.23141,-0.49844 2.65869,-0.59866c0.85074,-0.19955 1.70877,-0.40253 3.04681,-0.70035c0.46365,-0.10321 1.41824,-0.30692 2.38919,-0.57166c0.49582,-0.13519 1.99362,-0.65137 2.48932,-0.87085c1.00916,-0.44684 1.50122,-0.71613 2,-0.978c1.00247,-0.52631 1.48972,-0.81708 3.00015,-1.55783c0.49789,-0.24417 1.51013,-0.6969 2.02069,-0.92133c0.51477,-0.22626 1.56708,-0.67819 2.64581,-1.16666c0.55585,-0.25171 1.6821,-0.78482 2.24802,-1.05869c0.56506,-0.27347 1.67575,-0.8215 2.216,-1.09067c1.03644,-0.51639 2.004,-1.00131 2.47299,-1.23581c0.93799,-0.46902 1.41901,-0.7095 2.435,-1.21753c1.12799,-0.564 1.74734,-0.87366 2.40268,-1.20132c0.68732,-0.34366 1.40265,-0.70132 2.142,-1.07098c0.75934,-0.37967 1.53467,-0.76733 2.32199,-1.16101c1.59467,-0.79733 2.39395,-1.19739 3.19067,-1.59467c0.79028,-0.39407 1.57147,-0.78241 2.34149,-1.16101c0.75397,-0.3707 1.48956,-0.73032 2.20651,-1.07098c1.3533,-0.64301 1.99088,-0.9296 2.60132,-1.20132c0.58691,-0.26123 1.15729,-0.50818 1.71301,-0.7485c1.08521,-0.4693 1.62805,-0.69241 3.263,-1.44217c0.56442,-0.25885 1.1315,-0.53091 1.70398,-0.80402c1.14975,-0.54849 1.72098,-0.82419 2.29068,-1.09067c1.11533,-0.52167 2.19855,-1.00024 2.72684,-1.23132c1.0361,-0.45319 1.55173,-0.6666 2.55582,-1.13666c1.00674,-0.47128 1.50577,-0.72852 2.49234,-1.26868c0.49008,-0.26831 1.43881,-0.819 1.89468,-1.09467c1.28607,-0.77765 2.0441,-1.26871 2.75299,-1.71667c0.67517,-0.42664 1.33676,-0.84732 2.38266,-1.436c0.72641,-0.40884 1.10489,-0.59833 1.85333,-1c0.74222,-0.39835 1.8089,-0.99216 2.47266,-1.40448c0.65762,-0.40851 1.31046,-0.84546 2.31934,-1.56216c0.72101,-0.51221 1.45862,-1.05878 1.83334,-1.33334c0.74722,-0.54752 1.83026,-1.33774 2.51733,-1.81601c0.66504,-0.46292 1.3414,-0.91336 2.052,-1.36798c0.76126,-0.487 1.60065,-0.99817 2.48132,-1.552c0.45038,-0.28323 1.34949,-0.86057 1.78134,-1.16534c1.24121,-0.87598 1.60376,-1.18979 2.29599,-1.78799c0.65683,-0.5676 1.2558,-1.14163 2.17184,-1.88934c0.58716,-0.47928 1.20792,-0.88779 2.01483,-1.60532c0.79327,-0.7054 1.22485,-1.26691 1.87466,-2.05467c0.40726,-0.49373 1.20428,-1.30374 1.83151,-1.76134c0.65659,-0.47902 1.41226,-1.02985 2.2045,-1.76134c0.55777,-0.515 1.091,-1.05568 1.85315,-1.81717c0.68582,-0.68521 1.10934,-1.11234 1.92151,-1.92149c0.60336,-0.60114 1.22562,-1.21196 1.68533,-1.60001c0.97861,-0.82603 1.54749,-1.20459 2.12534,-1.59999c1.18292,-0.80945 1.78934,-1.2 2.38934,-1.60001c0.59998,-0.39999 1.19998,-0.79999 2.39999,-1.59999c0.60001,-0.40001 1.20004,-0.79993 1.79999,-1.20001c1.19742,-0.79851 1.78262,-1.18362 2.328,-1.564c0.94559,-0.6595 1.61777,-1.18175 2.272,-1.836c0.65424,-0.65424 1.1636,-1.33557 1.65717,-2.00534c0.55011,-0.74651 0.87881,-1.29785 1.74017,-2.02266c0.68384,-0.57542 1.72021,-0.91389 2.17734,-1.58267c0.54062,-0.79097 0.42532,-1.74649 0.42532,-2.58932c0,-0.90018 0,-1.68533 0,-2.636c0,-0.76534 0,-1.76401 0,-2.564c0,-1 0.01285,-1.80009 -0.00015,-2.8c-0.01041,-0.8002 -0.14493,-1.80739 -0.43585,-2.62134c-0.25012,-0.69983 -0.67334,-1.8186 -0.8595,-2.48399c-0.1936,-0.69197 -0.39429,-1.38147 -0.58301,-2.65167c-0.11401,-0.7673 -0.07532,-1.64162 -0.12598,-2.634c-0.04294,-0.84113 -0.71161,-1.39629 -1.64285,-1.409c-0.85284,-0.01164 -1.27692,-0.68813 -1.70984,-1.36166c-0.55701,-0.86661 -1.01471,-1.48073 -1.44281,-2.15434c-0.55392,-0.87155 -1.03104,-1.60161 -1.30984,-2.29832c-0.39377,-0.98393 -0.75443,-1.44521 -1.242,-2.2375c-0.63028,-1.02419 -1.05722,-1.67751 -1.36151,-2.4615c-0.32199,-0.82961 -0.55011,-1.70619 -1.08798,-2.28667c-0.65219,-0.70383 -1.34763,-1.5219 -2,-1.916c-0.77576,-0.46866 -1.17264,-1.17137 -1.74033,-1.784c-0.66861,-0.72153 -1.56339,-0.8651 -2.21552,-1.59984c-0.60196,-0.67822 -1.15387,-0.92494 -2.06818,-1.33617c-0.71255,-0.32048 -1.53867,-0.96399 -2.17465,-1.564c-0.63599,-0.60001 -1.29944,-1.14194 -2,-1.47917c-0.9523,-0.45842 -1.81723,-0.57552 -2.52084,-1.04166c-0.82379,-0.54578 -1.49783,-0.98343 -2.08047,-1.27917c-0.99948,-0.50732 -1.62756,-0.81697 -2.56534,-1.2c-0.78036,-0.31873 -1.64139,-0.57405 -2.66669,-1.16667c-0.50073,-0.28943 -1.16034,-0.86168 -1.85065,-1.43466c-0.73093,-0.6067 -1.54947,-1.20235 -2.12668,-1.59866c-0.5881,-0.40378 -1.48544,-1.00621 -2.39999,-1.60001c-0.62259,-0.40424 -1.2674,-0.8127 -2.31067,-1.39999c-0.72638,-0.40891 -1.47913,-0.79916 -1.85333,-1c-0.74222,-0.39835 -1.80795,-0.99284 -2.77866,-1.58934c-0.60269,-0.37035 -1.14542,-0.75038 -2.16269,-1.32533c-0.67474,-0.38136 -1.36365,-0.69495 -2.36667,-1.08533c-0.79315,-0.3087 -1.55032,-0.59543 -2.51648,-1.0955c-0.66498,-0.34419 -1.56384,-0.59724 -2.49817,-0.67917c-0.69781,-0.06119 -1.43112,-0.05035 -2.81735,-0.31067c-0.65512,-0.12302 -1.58102,-0.41849 -2.48532,-0.71466c-0.90021,-0.29483 -1.49173,-0.51338 -2.39999,-0.71466c-0.89316,-0.19792 -1.80173,-0.24223 -2.70001,-0.33801c-0.90207,-0.09619 -1.79883,-0.30472 -2.69998,-0.52199c-0.59924,-0.14449 -1.79971,-0.34465 -2.40002,-0.40001c-0.89954,-0.08296 -2.10208,-0.23677 -2.6955,-0.37799c-0.87207,-0.20753 -1.93265,-0.52473 -2.85782,-0.61134c-0.75748,-0.07091 -1.72583,-0.036 -2.64667,-0.036c-0.90451,0 -1.7681,0.03317 -2.64166,-0.02083c-0.647,-0.03999 -1.64233,-0.26317 -2.45834,-0.47917c-0.81601,-0.216 -1.81393,-0.44681 -2.72534,-0.48933c-0.94034,-0.04388 -1.72733,-0.01067 -2.54932,-0.01067c-1.05869,0 -1.77692,0.04507 -2.67801,-0.05716c-0.97638,-0.11078 -1.7785,-0.38799 -2.65182,-0.59018c-0.89105,-0.2063 -1.79944,-0.30742 -2.41635,-0.33183c-0.96393,-0.03815 -2.00034,-0.02083 -2.72733,-0.02083c-1.09048,0 -1.7825,0 -2.98248,0c-0.7485,0 -1.45203,0 -2.45334,0c-0.81601,0 -1.63202,0 -2.85434,0c-0.80002,0 -1.70901,0 -2.62833,0c-0.85419,0 -1.83334,0 -2.63333,0c-0.80002,0 -1.80002,0 -2.60001,0c-1,0 -1.80002,0 -2.80002,0c-0.79999,0 -1.80066,0.02376 -2.61066,-0.01067c-0.64758,-0.02753 -1.87619,-0.27802 -2.44666,-0.41467c-0.95966,-0.22989 -2.0748,-0.42171 -2.91068,-0.48933c-0.43683,-0.03534 -1.33191,-0.07108 -2.22665,-0.08083c-1.27194,-0.01385 -2.03201,-0.0045 -3.022,-0.0045c-0.81,0 -1.7861,0.05247 -2.55133,-0.08533c-1.05429,-0.18987 -1.76987,-0.53423 -2.69867,-0.748c-0.80444,-0.18515 -1.82275,-0.11827 -2.54401,-0.20267c-0.99957,-0.11696 -1.74231,-0.54106 -2.62268,-0.79733c-0.77505,-0.22562 -1.65198,-0.16606 -2.57117,-0.16667c-0.99417,-0.00067 -1.79401,0.07117 -2.71283,-0.284c-0.72943,-0.28195 -1.64905,-0.65312 -2.38266,-0.69518c-0.73105,-0.0419 -1.83932,0.12268 -2.79999,-0.02533c-0.93143,-0.14351 -1.46817,-0.85051 -2.41467,-0.99417c-0.85028,-0.12906 -1.78534,-0.00133 -2.64252,-0.00133c-0.94281,0 -1.84149,0 -2.6955,0l-0.91132,0l-0.86935,0"
      id="svg_3"
      stroke-linecap="null"
      stroke-linejoin="null"
      stroke-dasharray="null"
      stroke-width="5"
      stroke="#ffffff"
      fill="#ffffff"
    />
  </g>
</svg>
